<?xml version="1.0" encoding="UTF-8" standalone="no"?>
<!-- Created with Inkscape (http://www.inkscape.org/) -->

<svg
   xmlns:dc="http://purl.org/dc/elements/1.1/"
   xmlns:cc="http://creativecommons.org/ns#"
   xmlns:rdf="http://www.w3.org/1999/02/22-rdf-syntax-ns#"
   xmlns:svg="http://www.w3.org/2000/svg"
   xmlns="http://www.w3.org/2000/svg"
   xmlns:sodipodi="http://sodipodi.sourceforge.net/DTD/sodipodi-0.dtd"
   xmlns:inkscape="http://www.inkscape.org/namespaces/inkscape"
   width="64px"
   height="64px"
   viewBox="0 0 64 64"
   version="1.1"
   id="SVGRoot"
   inkscape:version="0.92.4 5da689c313, 2019-01-14"
   sodipodi:docname="drawing.svg">
  <defs
     id="defs4743" />
  <sodipodi:namedview
     id="base"
     pagecolor="#ffffff"
     bordercolor="#666666"
     borderopacity="1.0"
     inkscape:pageopacity="0.0"
     inkscape:pageshadow="2"
     inkscape:zoom="16"
     inkscape:cx="27.72747"
     inkscape:cy="29.265293"
     inkscape:document-units="px"
     inkscape:current-layer="layer1"
     showgrid="false"
     inkscape:window-width="1900"
     inkscape:window-height="1038"
     inkscape:window-x="10"
     inkscape:window-y="32"
     inkscape:window-maximized="0"
     inkscape:grid-bbox="true" />
  <metadata
     id="metadata4746">
    <rdf:RDF>
      <cc:Work
         rdf:about="">
        <dc:format>image/svg+xml</dc:format>
        <dc:type
           rdf:resource="http://purl.org/dc/dcmitype/StillImage" />
        <dc:title></dc:title>
      </cc:Work>
    </rdf:RDF>
  </metadata>
  <g
     inkscape:label="Layer 1"
     inkscape:groupmode="layer"
     id="layer1">
    <path
       style="fill:none;stroke:#000000;stroke-width:0.6;stroke-linecap:butt;stroke-linejoin:miter;stroke-opacity:1;stroke-miterlimit:4;stroke-dasharray:none"
       d="M 28.284271,18.126448 40.526057,18.303224 50.955882,24.755573 42.072854,38.58835 22.848389,40.798058 19.357048,29.970486 Z"
       id="path4760"
       inkscape:connector-curvature="0"
       sodipodi:nodetypes="ccccccc"
       inkscape:export-xdpi="379.8519"
       inkscape:export-ydpi="379.8519" />
    <path
       style="fill:#ffffff;fill-opacity:1;stroke:#000000;stroke-width:0;stroke-miterlimit:4;stroke-dasharray:none;stroke-opacity:1;paint-order:stroke fill markers"
       d="m 23.121482,39.950203 c -0.85648,-2.630559 -3.151346,-9.787778 -3.155346,-9.840877 -0.0037,-0.04917 8.331015,-11.182941 8.567383,-11.444573 0.01404,-0.01554 3.942569,0.0354 9.610187,0.12461 l 2.233673,0.03516 4.903686,3.034933 c 2.697027,1.669213 4.90168,3.059471 4.899229,3.089462 -0.0043,0.05279 -8.288967,12.990085 -8.389136,13.100463 -0.03265,0.03598 -3.216772,0.418863 -9.279958,1.115902 -5.076639,0.583624 -9.245898,1.061134 -9.26502,1.061134 -0.01912,0 -0.07523,-0.124296 -0.124698,-0.276213 z"
       id="path4764"
       inkscape:connector-curvature="0"
       inkscape:export-xdpi="379.8519"
       inkscape:export-ydpi="379.8519" />
    <path
       style="fill:#ffffff;fill-opacity:1;stroke:#000000;stroke-width:0;stroke-miterlimit:4;stroke-dasharray:none;stroke-opacity:1;paint-order:stroke fill markers"
       d="m 23.055523,39.751329 c -0.08421,-0.261298 -0.814426,-2.523487 -1.622701,-5.027087 -0.808275,-2.5036 -1.470511,-4.581831 -1.471637,-4.618291 -0.0015,-0.04877 8.332207,-11.179816 8.549592,-11.419394 0.03469,-0.03823 10.063515,0.07734 11.307952,0.130317 l 0.594134,0.02529 4.89864,3.032463 c 3.103842,1.921408 4.890863,3.052733 4.877412,3.087787 -0.01168,0.03043 -1.799501,2.825964 -3.972944,6.212303 -4.758538,7.414055 -4.446661,6.930378 -4.468734,6.930378 -0.0099,0 -2.092987,0.239091 -4.629079,0.531312 -7.975239,0.918948 -13.82906,1.590008 -13.870031,1.590008 -0.02172,0 -0.108392,-0.213789 -0.192604,-0.475087 z"
       id="path4766"
       inkscape:connector-curvature="0"
       inkscape:export-xdpi="379.8519"
       inkscape:export-ydpi="379.8519" />
    <path
       style="fill:#ffffff;fill-opacity:1;stroke:#000000;stroke-width:0;stroke-miterlimit:4;stroke-dasharray:none;stroke-opacity:1;paint-order:stroke fill markers"
       d="m 22.989626,39.552455 c -1.617102,-4.994987 -3.027274,-9.393718 -3.02842,-9.446504 -0.0011,-0.04963 6.375384,-8.572634 8.307126,-11.103602 l 0.261273,-0.34232 0.530331,-3.72e-4 c 0.813522,-5.7e-4 9.898273,0.12664 10.662186,0.149298 l 0.674302,0.02 3.568338,2.209282 c 5.867545,3.632802 6.220196,3.854924 6.214977,3.914582 -0.0028,0.03151 -0.488524,0.811075 -1.079483,1.732373 -5.947085,9.271436 -7.262414,11.317043 -7.307549,11.364736 -0.03422,0.03616 -1.773418,0.253602 -5.022541,0.627935 -8.720432,1.004684 -13.467216,1.548553 -13.515453,1.548553 -0.02579,0 -0.145082,-0.303282 -0.265087,-0.673961 z"
       id="path4768"
       inkscape:connector-curvature="0"
       inkscape:export-xdpi="379.8519"
       inkscape:export-ydpi="379.8519" />
    <path
       style="fill:#ffffff;fill-opacity:1;stroke:#000000;stroke-width:0;stroke-miterlimit:4;stroke-dasharray:none;stroke-opacity:1;paint-order:stroke fill markers"
       d="m 22.76691,38.867446 c -0.242582,-0.747434 -0.910672,-2.820694 -1.484644,-4.607243 -0.573973,-1.78655 -1.111653,-3.454863 -1.194845,-3.707363 -0.08319,-0.2525 -0.137857,-0.481204 -0.121477,-0.508233 0.02831,-0.04671 8.316832,-11.069532 8.491179,-11.292328 l 0.08315,-0.106254 5.717813,0.07721 c 3.144798,0.04246 5.827194,0.09151 5.960881,0.108996 0.249103,0.03258 0.745674,0.333771 9.006305,5.462758 0.616563,0.382821 0.977067,0.632453 0.963691,0.66731 -0.01175,0.03063 -0.317574,0.519339 -0.6796,1.086021 -0.813051,1.272676 -7.046109,10.9829 -7.444906,11.598115 -0.281703,0.434575 -0.295438,0.448107 -0.482154,0.475009 -0.365487,0.05266 -18.221751,2.104974 -18.31443,2.104974 -0.03955,0 -0.20978,-0.461796 -0.50096,-1.35897 z"
       id="path4770"
       inkscape:connector-curvature="0"
       inkscape:export-xdpi="379.8519"
       inkscape:export-ydpi="379.8519" />
    <path
       style="fill:#b3b3b3;stroke:none;stroke-width:1px;stroke-linecap:butt;stroke-linejoin:miter;stroke-opacity:1;fill-opacity:1"
       d="M 22.848389,40.798058 32.305941,30.85437 19.357048,29.970486 Z"
       id="path6784"
       inkscape:connector-curvature="0"
       inkscape:export-xdpi="379.8519"
       inkscape:export-ydpi="379.8519" />
    <path
       style="fill:#b3b3b3;stroke:none;stroke-width:1px;stroke-linecap:butt;stroke-linejoin:miter;stroke-opacity:1;fill-opacity:1"
       d="M 28.284271,18.126448 32.305941,30.85437 19.357048,29.970486 Z"
       id="path6786"
       inkscape:connector-curvature="0"
       inkscape:export-xdpi="379.8519"
       inkscape:export-ydpi="379.8519" />
    <path
       style="fill:#808080;stroke:none;stroke-width:1px;stroke-linecap:butt;stroke-linejoin:miter;stroke-opacity:1;fill-opacity:1"
       d="m 40.526057,18.303224 -3.093592,8.441087 -5.126524,4.110059 -4.02167,-12.727922 z"
       id="path6788"
       inkscape:connector-curvature="0"
       inkscape:export-xdpi="379.8519"
       inkscape:export-ydpi="379.8519" />
    <path
       style="fill:#cccccc;stroke:none;stroke-width:1px;stroke-linecap:butt;stroke-linejoin:miter;stroke-opacity:1;fill-opacity:1"
       d="m 32.305941,30.85437 9.766913,7.73398 -19.224465,2.209708 z"
       id="path6790"
       inkscape:connector-curvature="0"
       inkscape:export-xdpi="379.8519"
       inkscape:export-ydpi="379.8519" />
    <path
       style="fill:#dbdbdb;stroke:none;stroke-width:1px;stroke-linecap:butt;stroke-linejoin:miter;stroke-opacity:1;fill-opacity:1"
       d="m 37.432465,26.744311 1.37002,9.280777 3.270369,2.563262 8.883028,-13.832777 z"
       id="path6792"
       inkscape:connector-curvature="0"
       inkscape:export-xdpi="379.8519"
       inkscape:export-ydpi="379.8519" />
    <path
       style="fill:#b3b3b3;stroke:none;stroke-width:1px;stroke-linecap:butt;stroke-linejoin:miter;stroke-opacity:1;fill-opacity:1"
       d="m 40.526057,18.303224 -3.093592,8.441087 13.523417,-1.988738 z"
       id="path6794"
       inkscape:connector-curvature="0"
       inkscape:export-xdpi="379.8519"
       inkscape:export-ydpi="379.8519" />
    <path
       style="fill:#b3b3b3;stroke:none;stroke-width:1px;stroke-linecap:butt;stroke-linejoin:miter;stroke-opacity:1;fill-opacity:1"
       d="m 38.802485,36.025088 -1.37002,-9.280777 -5.126524,4.110059 z"
       id="path6796"
       inkscape:connector-curvature="0"
       inkscape:export-xdpi="379.8519"
       inkscape:export-ydpi="379.8519" />
    <path
       inkscape:connector-curvature="0"
       id="path6817"
       d="M 22.848389,40.798058 32.305941,30.85437 19.357048,29.970486 Z"
       style="fill:#b3b3b3;stroke:none;stroke-width:1px;stroke-linecap:butt;stroke-linejoin:miter;stroke-opacity:1;fill-opacity:1"
       inkscape:export-xdpi="379.8519"
       inkscape:export-ydpi="379.8519" />
    <path
       inkscape:connector-curvature="0"
       id="path6819"
       d="M 28.284271,18.126448 32.305941,30.85437 19.357048,29.970486 Z"
       style="fill:#b3b3b3;stroke:none;stroke-width:1px;stroke-linecap:butt;stroke-linejoin:miter;stroke-opacity:1;fill-opacity:1"
       inkscape:export-xdpi="379.8519"
       inkscape:export-ydpi="379.8519" />
    <path
       inkscape:connector-curvature="0"
       id="path6821"
       d="m 40.526057,18.303224 -3.093592,8.441087 -5.126524,4.110059 -4.02167,-12.727922 z"
       style="fill:#808080;stroke:none;stroke-width:1px;stroke-linecap:butt;stroke-linejoin:miter;stroke-opacity:1;fill-opacity:1"
       inkscape:export-xdpi="379.8519"
       inkscape:export-ydpi="379.8519" />
    <path
       inkscape:connector-curvature="0"
       id="path6823"
       d="m 32.305941,30.85437 9.766913,7.73398 -19.224465,2.209708 z"
       style="fill:#cccccc;stroke:none;stroke-width:1px;stroke-linecap:butt;stroke-linejoin:miter;stroke-opacity:1;fill-opacity:1"
       inkscape:export-xdpi="379.8519"
       inkscape:export-ydpi="379.8519" />
    <path
       inkscape:connector-curvature="0"
       id="path6825"
       d="m 37.432465,26.744311 1.37002,9.280777 3.270369,2.563262 8.883028,-13.832777 z"
       style="fill:#dbdbdb;stroke:none;stroke-width:1px;stroke-linecap:butt;stroke-linejoin:miter;stroke-opacity:1;fill-opacity:1"
       inkscape:export-xdpi="379.8519"
       inkscape:export-ydpi="379.8519" />
    <path
       inkscape:connector-curvature="0"
       id="path6827"
       d="m 40.526057,18.303224 -3.093592,8.441087 13.523417,-1.988738 z"
       style="fill:#b3b3b3;stroke:none;stroke-width:1px;stroke-linecap:butt;stroke-linejoin:miter;stroke-opacity:1;fill-opacity:1"
       inkscape:export-xdpi="379.8519"
       inkscape:export-ydpi="379.8519" />
    <path
       inkscape:connector-curvature="0"
       id="path6829"
       d="m 38.802485,36.025088 -1.37002,-9.280777 -5.126524,4.110059 z"
       style="fill:#b3b3b3;stroke:none;stroke-width:1px;stroke-linecap:butt;stroke-linejoin:miter;stroke-opacity:1;fill-opacity:1"
       inkscape:export-xdpi="379.8519"
       inkscape:export-ydpi="379.8519" />
    <path
       style="fill:#b3b3b3;stroke:none;stroke-width:1px;stroke-linecap:butt;stroke-linejoin:miter;stroke-opacity:1;fill-opacity:1"
       d="M 22.848389,40.798058 32.305941,30.85437 19.357048,29.970486 Z"
       id="path6831"
       inkscape:connector-curvature="0"
       inkscape:export-xdpi="379.8519"
       inkscape:export-ydpi="379.8519" />
    <path
       style="fill:#b3b3b3;stroke:none;stroke-width:1px;stroke-linecap:butt;stroke-linejoin:miter;stroke-opacity:1;fill-opacity:1"
       d="M 28.284271,18.126448 32.305941,30.85437 19.357048,29.970486 Z"
       id="path6833"
       inkscape:connector-curvature="0"
       inkscape:export-xdpi="379.8519"
       inkscape:export-ydpi="379.8519" />
    <path
       style="fill:#808080;stroke:none;stroke-width:1px;stroke-linecap:butt;stroke-linejoin:miter;stroke-opacity:1;fill-opacity:1"
       d="m 40.526057,18.303224 -3.093592,8.441087 -5.126524,4.110059 -4.02167,-12.727922 z"
       id="path6835"
       inkscape:connector-curvature="0"
       inkscape:export-xdpi="379.8519"
       inkscape:export-ydpi="379.8519" />
    <path
       style="fill:#cccccc;stroke:none;stroke-width:1px;stroke-linecap:butt;stroke-linejoin:miter;stroke-opacity:1;fill-opacity:1"
       d="m 32.305941,30.85437 9.766913,7.73398 -19.224465,2.209708 z"
       id="path6837"
       inkscape:connector-curvature="0"
       inkscape:export-xdpi="379.8519"
       inkscape:export-ydpi="379.8519" />
    <path
       style="fill:#dbdbdb;stroke:none;stroke-width:1px;stroke-linecap:butt;stroke-linejoin:miter;stroke-opacity:1;fill-opacity:1"
       d="m 37.432465,26.744311 1.37002,9.280777 3.270369,2.563262 8.883028,-13.832777 z"
       id="path6839"
       inkscape:connector-curvature="0"
       inkscape:export-xdpi="379.8519"
       inkscape:export-ydpi="379.8519" />
    <path
       style="fill:#b3b3b3;stroke:none;stroke-width:1px;stroke-linecap:butt;stroke-linejoin:miter;stroke-opacity:1;fill-opacity:1"
       d="m 40.526057,18.303224 -3.093592,8.441087 13.523417,-1.988738 z"
       id="path6841"
       inkscape:connector-curvature="0"
       inkscape:export-xdpi="379.8519"
       inkscape:export-ydpi="379.8519" />
    <path
       style="fill:#b3b3b3;stroke:none;stroke-width:1px;stroke-linecap:butt;stroke-linejoin:miter;stroke-opacity:1;fill-opacity:1"
       d="m 38.802485,36.025088 -1.37002,-9.280777 -5.126524,4.110059 z"
       id="path6843"
       inkscape:connector-curvature="0"
       inkscape:export-xdpi="379.8519"
       inkscape:export-ydpi="379.8519" />
  </g>
</svg>
